<?xml version="1.0" encoding="UTF-8"?>
<svg version="1.1" xmlns="http://www.w3.org/2000/svg" width="600" height="300">
<path d="M0 0 C2.95859057 -0.05467621 5.91614004 -0.09399398 8.875 -0.125 C9.69742188 -0.14175781 10.51984375 -0.15851563 11.3671875 -0.17578125 C22.02558908 -0.25905001 29.69284209 1.76930912 38.625 7.625 C39.84509766 8.3984375 39.84509766 8.3984375 41.08984375 9.1875 C43.06908817 10.44490233 45.03828532 11.71549052 47 13 C46.71469644 15.188339 46.42144575 17.37564253 46.125 19.5625 C45.96257812 20.78066406 45.80015625 21.99882812 45.6328125 23.25390625 C45.42398438 24.49011719 45.21515625 25.72632813 45 27 C44.87818359 28.77697266 44.87818359 28.77697266 44.75390625 30.58984375 C41.75552808 36.41965252 35.68171853 37.73551372 29.8125 40 C28.51638605 40.52285211 27.2214618 41.04866293 25.92773438 41.57739258 C23.40156023 42.60856348 20.87171131 43.62962 18.33837891 44.64306641 C14.49051448 46.20708794 10.74816866 47.89888559 7 49.6875 C5.35257812 50.46867187 5.35257812 50.46867187 3.671875 51.265625 C3.10533203 51.53439453 2.53878906 51.80316406 1.95507812 52.08007812 C-2.26481562 54.0656625 -6.50594182 56.00423806 -10.75 57.9375 C-11.62140625 58.3399292 -12.4928125 58.7423584 -13.390625 59.15698242 C-14.61265625 59.71156128 -14.61265625 59.71156128 -15.859375 60.27734375 C-16.58608398 60.60984131 -17.31279297 60.94233887 -18.06152344 61.28491211 C-20 62 -20 62 -23 62 C-20.9283681 51.41165919 -13.50809934 43.23850186 -5 37 C0.15819222 33.95773935 5.63167175 31.50806199 11.0625 29 C12.51563327 28.31519939 13.96811317 27.62901055 15.41992188 26.94140625 C18.93929879 25.27819579 22.46694101 23.63393208 26 22 C21.41427176 17.91690726 16.80491094 13.97378053 11.875 10.3125 C10.90304687 9.58675781 9.93109375 8.86101562 8.9296875 8.11328125 C6.87475169 6.63098755 4.76994031 5.21658612 2.6328125 3.85546875 C1.76398438 3.24316406 0.89515625 2.63085938 0 2 C0 1.34 0 0.68 0 0 Z " fill="#B23990" transform="translate(360,122)"/>
<path d="M0 0 C0.85980469 -0.020625 1.71960938 -0.04125 2.60546875 -0.0625 C7.52201119 -0.09280226 10.72400386 0.11255379 14.75 3.25 C15.3275 3.641875 15.905 4.03375 16.5 4.4375 C18.57841132 7.45119641 18.86100298 10.68484547 18.75 14.25 C18.09759068 17.02139164 17.21582608 18.72271365 15.75 21.25 C13.63671875 22.4453125 13.63671875 22.4453125 11.75 23.25 C12.26691406 24.22582031 12.78382813 25.20164063 13.31640625 26.20703125 C13.98229533 27.49191582 14.64763128 28.77708715 15.3125 30.0625 C15.82586914 31.02639648 15.82586914 31.02639648 16.34960938 32.00976562 C17.2265023 33.71926395 17.99515617 35.48321294 18.75 37.25 C18.42 38.24 18.09 39.23 17.75 40.25 C13.45026064 41.30299739 13.45026064 41.30299739 10.75 40.25 C7.79065512 36.44512802 3.75 31.23196766 3.75 26.25 C1.77 25.92 -0.21 25.59 -2.25 25.25 C-2.23839844 26.24902344 -2.22679687 27.24804688 -2.21484375 28.27734375 C-2.20582031 29.56769531 -2.19679687 30.85804688 -2.1875 32.1875 C-2.17589844 33.47527344 -2.16429687 34.76304687 -2.15234375 36.08984375 C-2.25 39.25 -2.25 39.25 -3.25 40.25 C-6.25 40.375 -6.25 40.375 -9.25 40.25 C-11.09276509 38.40723491 -10.37874411 35.82036241 -10.38894653 33.36865234 C-10.3869223 32.54574707 -10.38489807 31.7228418 -10.3828125 30.875 C-10.38376923 30.03533691 -10.38472595 29.19567383 -10.38571167 28.33056641 C-10.38639348 26.55175705 -10.38453917 24.77294523 -10.38037109 22.99414062 C-10.37502283 20.26166224 -10.38031605 17.52934824 -10.38671875 14.796875 C-10.38605797 13.0729163 -10.38477681 11.34895771 -10.3828125 9.625 C-10.38483673 8.80209473 -10.38686096 7.97918945 -10.38894653 7.13134766 C-10.35346811 -1.39435596 -7.56324138 0.04455518 0 0 Z M-2.25 7.25 C-2.25 10.88 -2.25 14.51 -2.25 18.25 C0.163125 18.311875 0.163125 18.311875 2.625 18.375 C3.52992188 18.39820313 4.43484375 18.42140625 5.3671875 18.4453125 C7.93806994 18.49324836 7.93806994 18.49324836 9.75 16.25 C10.23321392 12.15437892 10.23321392 12.15437892 8.5234375 8.5703125 C6.22752375 6.86101989 4.89141288 6.93950379 2.0625 7.0625 C0.639375 7.124375 -0.78375 7.18625 -2.25 7.25 Z " fill="#B94599" transform="translate(203.25,115.75)"/>
<path d="M0 0 C3.02181414 -0.10867663 6.03966327 -0.18762754 9.0625 -0.25 C9.91005859 -0.28351563 10.75761719 -0.31703125 11.63085938 -0.3515625 C17.64419216 -0.4444325 21.08482932 0.48177256 26 4 C28.50871102 7.92667812 28.59861062 12.45976865 28 17 C26.35024446 20.71194997 24.43479361 22.85325399 21 25 C17.98509443 26.00496852 15.95818308 26.10335303 12.8125 26.0625 C11.224375 26.041875 9.63625 26.02125 8 26 C8 30.29 8 34.58 8 39 C4.625 39.625 4.625 39.625 1 40 C-1.54956487 37.45043513 -1.23726715 35.81210813 -1.25224304 32.3359375 C-1.24505753 31.56507813 -1.23787201 30.79421875 -1.23046875 30 C-1.23001053 29.20851562 -1.22955231 28.41703125 -1.2290802 27.6015625 C-1.22605731 25.9270681 -1.2181699 24.25257652 -1.20581055 22.578125 C-1.18757326 20.01031569 -1.18530072 17.44286726 -1.18554688 14.875 C-1.18063094 13.24999687 -1.17480229 11.6249962 -1.16796875 10 C-1.16685593 9.22914062 -1.1657431 8.45828125 -1.16459656 7.6640625 C-1.11606989 2.23213978 -1.11606989 2.23213978 0 0 Z M8 7 C8 10.96 8 14.92 8 19 C10.4440625 18.7834375 10.4440625 18.7834375 12.9375 18.5625 C13.85402344 18.48128906 14.77054688 18.40007812 15.71484375 18.31640625 C17.96159732 18.23955024 17.96159732 18.23955024 19 17 C19.22918242 12.98342857 19.22918242 12.98342857 19 9 C17.21342243 6.78629949 17.21342243 6.78629949 14.8359375 6.8046875 C11.41796875 6.90234375 11.41796875 6.90234375 8 7 Z " fill="#BC4D9D" transform="translate(228,116)"/>
<path d="M0 0 C18.7691852 -0.34686379 29.29439502 1.43866266 45 12 C44 15 44 15 40.796875 16.89453125 C39.45327761 17.54504523 38.10400882 18.18394412 36.75 18.8125 C35.74646484 19.31813477 35.74646484 19.31813477 34.72265625 19.83398438 C29.68811299 22.20289029 29.68811299 22.20289029 26.5300293 21.27172852 C24.01352183 20.0067968 21.98352991 18.63771095 19.78515625 16.8828125 C19.01623047 16.27566406 18.24730469 15.66851562 17.45507812 15.04296875 C16.66552734 14.41003906 15.87597656 13.77710938 15.0625 13.125 C13.49243926 11.87564896 11.92085653 10.62820787 10.34765625 9.3828125 C9.60660645 8.79532227 8.86555664 8.20783203 8.10205078 7.60253906 C6.25686986 6.19582971 4.39218166 4.92026064 2.43359375 3.6796875 C1.63050781 3.12539062 0.82742188 2.57109375 0 2 C0 1.34 0 0.68 0 0 Z " fill="#683F83" transform="translate(360,122)"/>
<path d="M0 0 C3.45331341 2.35453187 4.42859682 3.91079046 5.75 7.875 C5.97204478 10.89480904 5.9312509 13.85415171 5.75 16.875 C3.453463 18.0232685 2.16686833 17.99061175 -0.3828125 17.97265625 C-1.18847656 17.96943359 -1.99414062 17.96621094 -2.82421875 17.96289062 C-3.66597656 17.95451172 -4.50773437 17.94613281 -5.375 17.9375 C-6.22449219 17.93298828 -7.07398438 17.92847656 -7.94921875 17.92382812 C-10.04950909 17.91202874 -12.1497633 17.89409306 -14.25 17.875 C-13.37507229 22.61113883 -13.37507229 22.61113883 -10.578125 26.3046875 C-7.3371582 27.09861561 -4.33226032 27.06170852 -1 27 C0.89492188 26.97292969 0.89492188 26.97292969 2.828125 26.9453125 C3.79234375 26.92210937 4.7565625 26.89890625 5.75 26.875 C4.875 30.75 4.875 30.75 3.75 31.875 C-2.73271523 33.26415326 -9.47650276 33.54802256 -15.25 29.875 C-19.07027421 25.37780001 -19.87965608 21.6230861 -19.75 15.875 C-19.76546875 15.18921875 -19.7809375 14.5034375 -19.796875 13.796875 C-19.75794712 8.69732217 -18.42111854 5.80226325 -15.25 1.875 C-10.38542811 -2.06924748 -5.79419084 -2.00568144 0 0 Z M-13.25 5.875 C-13.58 8.185 -13.91 10.495 -14.25 12.875 C-9.3 12.875 -4.35 12.875 0.75 12.875 C0.51666667 6.24166667 0.51666667 6.24166667 -2.25 3.875 C-6.74435154 2.25203972 -9.42579709 3.09376152 -13.25 5.875 Z " fill="#A3A3A2" transform="translate(303.25,123.125)"/>
<path d="M0 0 C2.475 0.495 2.475 0.495 5 1 C5 2.98 5 4.96 5 7 C5.66 6.67 6.32 6.34 7 6 C12.54122903 5.63058473 16.28780629 5.71242299 21 9 C24.84620011 14.57287902 24.44776058 20.24197017 24.375 26.75 C24.38660156 27.80316406 24.39820313 28.85632813 24.41015625 29.94140625 C24.40628906 30.94558594 24.40242188 31.94976562 24.3984375 32.984375 C24.39505371 33.89928711 24.39166992 34.81419922 24.38818359 35.75683594 C24.26008301 36.49708008 24.13198242 37.23732422 24 38 C23.01 38.66 22.02 39.32 21 40 C20.34 39.67 19.68 39.34 19 39 C18.98018066 38.2886792 18.96036133 37.5773584 18.93994141 36.84448242 C18.84475133 33.62511184 18.73504771 30.4063955 18.625 27.1875 C18.5940625 26.06794922 18.563125 24.94839844 18.53125 23.79492188 C18.49257813 22.72177734 18.45390625 21.64863281 18.4140625 20.54296875 C18.36693115 19.0583313 18.36693115 19.0583313 18.31884766 17.54370117 C18.16226567 14.75924906 18.16226567 14.75924906 16 12 C12.28727232 11.09244435 8.80198128 10.96772512 5 11 C5.01571045 11.80743652 5.0314209 12.61487305 5.04760742 13.44677734 C5.10979679 17.08944756 5.14894009 20.73200634 5.1875 24.375 C5.21263672 25.64601562 5.23777344 26.91703125 5.26367188 28.2265625 C5.27333984 29.43828125 5.28300781 30.65 5.29296875 31.8984375 C5.3086792 33.01911621 5.32438965 34.13979492 5.34057617 35.29443359 C5.22818604 36.18727051 5.1157959 37.08010742 5 38 C4.01 38.66 3.02 39.32 2 40 C0 38 0 38 -0.22705078 34.28466797 C-0.22673351 32.68713948 -0.21539982 31.08958973 -0.1953125 29.4921875 C-0.1924826 28.65156769 -0.18965271 27.81094788 -0.18673706 26.94485474 C-0.1755243 24.25475954 -0.15041803 21.5649949 -0.125 18.875 C-0.1149716 17.05339022 -0.10584551 15.23177523 -0.09765625 13.41015625 C-0.07558142 8.93997642 -0.04104434 4.47004429 0 0 Z " fill="#A7A7A6" transform="translate(337,116)"/>
<path d="M0 0 C1.32 0 2.64 0 4 0 C4 1.98 4 3.96 4 6 C7.3 6 10.6 6 14 6 C14.33 7.32 14.66 8.64 15 10 C12.59454362 11.20272819 11.05003047 11.10071472 8.375 11.0625 C7.14910156 11.04896484 7.14910156 11.04896484 5.8984375 11.03515625 C4.95871094 11.01775391 4.95871094 11.01775391 4 11 C4.13850705 14.45866792 4.28704727 17.91683275 4.4375 21.375 C4.47681641 22.35984375 4.51613281 23.3446875 4.55664062 24.359375 C4.59853516 25.30039063 4.64042969 26.24140625 4.68359375 27.2109375 C4.72025146 28.08024902 4.75690918 28.94956055 4.79467773 29.84521484 C4.87401544 32.0483262 4.87401544 32.0483262 6 34 C8.12576782 34.46651207 8.12576782 34.46651207 10.5625 34.625 C11.38878906 34.69976562 12.21507812 34.77453125 13.06640625 34.8515625 C13.70449219 34.90054688 14.34257812 34.94953125 15 35 C15 36.32 15 37.64 15 39 C10.02797322 39.99440536 6.60313395 40.30156698 2 38 C-1.19483837 33.89828853 -1.3646618 30.66076772 -1.328125 25.546875 C-1.32625183 24.84604797 -1.32437866 24.14522095 -1.32244873 23.42315674 C-1.31575582 21.95067545 -1.30189647 20.47821112 -1.28125 19.00585938 C-1.24990751 16.74332303 -1.24025732 14.4814826 -1.234375 12.21875 C-1.16364954 1.16364954 -1.16364954 1.16364954 0 0 Z " fill="#A2A2A1" transform="translate(267,116)"/>
<path d="M0 0 C0.86625 -0.00257812 1.7325 -0.00515625 2.625 -0.0078125 C5 0.125 5 0.125 8 1.125 C7.67 2.445 7.34 3.765 7 5.125 C6.40832031 5.11339844 5.81664062 5.10179688 5.20703125 5.08984375 C0.99768215 5.04177614 -2.8922333 5.06493117 -7 6.125 C-8.12559726 9.78547888 -8.23570107 13.30930583 -8.3125 17.125 C-8.34988281 18.341875 -8.38726562 19.55875 -8.42578125 20.8125 C-8.2523255 24.15126828 -8.2523255 24.15126828 -6.33984375 26.546875 C-3.4143689 28.51998325 -1.74492397 28.54142495 1.75 28.375 C3.22726562 28.32085937 3.22726562 28.32085937 4.734375 28.265625 C5.48203125 28.21921875 6.2296875 28.1728125 7 28.125 C7.5625 30.0625 7.5625 30.0625 8 32.125 C6.07405513 34.05094487 3.02516306 33.85969676 0.421875 34.125 C-4.02560824 34.125 -7.27495937 32.43365151 -10.8125 29.75 C-15.08164702 23.90800934 -14.57284531 17.02518209 -14 10.125 C-12.64789712 6.39062062 -11.13242026 3.6048327 -8 1.125 C-5.05173237 0.14224412 -3.07347496 -0.00914725 0 0 Z " fill="#A5A5A4" transform="translate(326,121.875)"/>
</svg>
